<svg width="140" height="30" viewBox="0 0 140 30" fill="none" xmlns="http://www.w3.org/2000/svg">
  <g clip-path="url(#clip0_259_1052)">
    <path d="M7.76949 21.8077L12.0725 11.1963H2.35501C0.642477 11.1963 -0.496075 13.0116 0.215257 14.6079L3.45753 21.884C4.31078 23.7988 6.98126 23.7516 7.76949 21.8077Z" fill="#46C4FF" />
    <path d="M31.1523 0H23.7681C22.0305 0 20.464 1.07281 19.7993 2.71802L10.1114 26.6986C8.76656 29.2249 7.26309 29.9522 6.67944 30H19.5161C21.2444 30 22.8043 28.9386 23.475 27.3064L33.3203 3.3458C33.9731 1.75701 32.8346 0 31.1523 0Z" fill="#2F73F2" />
    <path d="M47.2287 23.5V6.04545H53.7741C55.115 6.04545 56.24 6.27841 57.1491 6.74432C58.0639 7.21023 58.7542 7.86364 59.2201 8.70454C59.6917 9.53977 59.9275 10.5142 59.9275 11.6278C59.9275 12.7472 59.6889 13.7187 59.2116 14.5426C58.74 15.3608 58.044 15.9943 57.1236 16.4432C56.2031 16.8864 55.0724 17.108 53.7315 17.108H49.0696V14.483H53.3054C54.0895 14.483 54.7315 14.375 55.2315 14.1591C55.7315 13.9375 56.1008 13.6165 56.3395 13.196C56.5838 12.7699 56.7059 12.2472 56.7059 11.6278C56.7059 11.0085 56.5838 10.4801 56.3395 10.0426C56.0951 9.59943 55.723 9.2642 55.223 9.03693C54.723 8.80398 54.0781 8.6875 53.2883 8.6875H50.3906V23.5H47.2287ZM56.2457 15.5909L60.5667 23.5H57.0383L52.794 15.5909H56.2457ZM68.3096 23.7557C66.9971 23.7557 65.8636 23.483 64.9091 22.9375C63.9602 22.3864 63.2301 21.608 62.7187 20.6023C62.2074 19.5909 61.9517 18.4006 61.9517 17.0312C61.9517 15.6847 62.2074 14.5028 62.7187 13.4858C63.2358 12.4631 63.9574 11.6676 64.8835 11.0994C65.8096 10.5256 66.8977 10.2386 68.1477 10.2386C68.9545 10.2386 69.7159 10.3693 70.4318 10.6307C71.1534 10.8864 71.7898 11.2841 72.3409 11.8239C72.8977 12.3636 73.3352 13.0511 73.6534 13.8864C73.9716 14.7159 74.1307 15.7045 74.1307 16.8523V17.7983H63.4005V15.7188H71.1733C71.1676 15.1278 71.0398 14.6023 70.7898 14.142C70.5398 13.6761 70.1903 13.3097 69.7415 13.0426C69.2983 12.7756 68.7812 12.642 68.1903 12.642C67.5596 12.642 67.0057 12.7955 66.5284 13.1023C66.0511 13.4034 65.679 13.8011 65.4119 14.2955C65.1505 14.7841 65.017 15.321 65.0113 15.9062V17.7216C65.0113 18.483 65.1505 19.1364 65.429 19.6818C65.7074 20.2216 66.0966 20.6364 66.5966 20.9261C67.0966 21.2102 67.6818 21.3523 68.3523 21.3523C68.8011 21.3523 69.2074 21.2898 69.571 21.1648C69.9346 21.0341 70.25 20.8438 70.517 20.5938C70.7841 20.3438 70.9858 20.0341 71.1221 19.6648L74.0028 19.9886C73.821 20.75 73.4744 21.4148 72.963 21.983C72.4574 22.5455 71.8096 22.983 71.0199 23.2955C70.2301 23.6023 69.3267 23.7557 68.3096 23.7557ZM87.0873 13.8693L84.2748 14.1761C84.1953 13.892 84.0561 13.625 83.8572 13.375C83.664 13.125 83.4027 12.9233 83.0731 12.7699C82.7436 12.6165 82.3402 12.5398 81.8629 12.5398C81.2209 12.5398 80.6811 12.679 80.2436 12.9574C79.8118 13.2358 79.5987 13.5966 79.6044 14.0398C79.5987 14.4205 79.7379 14.7301 80.022 14.9688C80.3118 15.2074 80.789 15.4034 81.4538 15.5568L83.6868 16.0341C84.9254 16.3011 85.8459 16.7244 86.4481 17.304C87.0561 17.8835 87.3629 18.642 87.3686 19.5795C87.3629 20.4034 87.1214 21.1307 86.6442 21.7614C86.1726 22.3864 85.5163 22.875 84.6754 23.2273C83.8345 23.5795 82.8686 23.7557 81.7777 23.7557C80.1754 23.7557 78.8856 23.4205 77.9084 22.75C76.9311 22.0739 76.3487 21.1335 76.1612 19.929L79.1697 19.6392C79.3061 20.2301 79.5959 20.6761 80.039 20.9773C80.4822 21.2784 81.0589 21.429 81.7692 21.429C82.5021 21.429 83.0902 21.2784 83.5334 20.9773C83.9822 20.6761 84.2067 20.304 84.2067 19.8608C84.2067 19.4858 84.0618 19.1761 83.772 18.9318C83.4879 18.6875 83.0447 18.5 82.4424 18.3693L80.2095 17.9006C78.9538 17.6392 78.0248 17.1989 77.4226 16.5795C76.8203 15.9545 76.522 15.1648 76.5277 14.2102C76.522 13.4034 76.7407 12.7045 77.1839 12.1136C77.6328 11.517 78.2549 11.0568 79.0504 10.733C79.8515 10.4034 80.7748 10.2386 81.8203 10.2386C83.3544 10.2386 84.5618 10.5653 85.4425 11.2188C86.3288 11.8722 86.8771 12.7557 87.0873 13.8693ZM98.2564 17.9943V10.4091H101.342V23.5H98.3501V21.1733H98.2138C97.9183 21.9062 97.4325 22.5057 96.7564 22.9716C96.0859 23.4375 95.2592 23.6705 94.2763 23.6705C93.4183 23.6705 92.6598 23.4801 92.0007 23.0994C91.3473 22.7131 90.8359 22.1534 90.4666 21.4205C90.0973 20.6818 89.9126 19.7898 89.9126 18.7443V10.4091H92.9978V18.267C92.9978 19.0966 93.2251 19.7557 93.6797 20.2443C94.1342 20.733 94.7308 20.9773 95.4694 20.9773C95.924 20.9773 96.3643 20.8665 96.7905 20.6449C97.2166 20.4233 97.566 20.0938 97.8388 19.6562C98.1172 19.2131 98.2564 18.6591 98.2564 17.9943ZM104.514 23.5V10.4091H107.463V12.6335H107.616C107.889 11.8835 108.341 11.2983 108.972 10.8778C109.602 10.4517 110.355 10.2386 111.23 10.2386C112.116 10.2386 112.864 10.4545 113.472 10.8864C114.085 11.3125 114.517 11.8949 114.767 12.6335H114.903C115.193 11.9062 115.682 11.3267 116.369 10.8949C117.062 10.4574 117.884 10.2386 118.832 10.2386C120.037 10.2386 121.02 10.6193 121.781 11.3807C122.543 12.142 122.923 13.2528 122.923 14.7131V23.5H119.83V15.1903C119.83 14.3778 119.614 13.7841 119.182 13.4091C118.75 13.0284 118.222 12.8381 117.597 12.8381C116.852 12.8381 116.27 13.071 115.849 13.5369C115.435 13.9972 115.227 14.5966 115.227 15.3352V23.5H112.202V15.0625C112.202 14.3864 111.997 13.8466 111.588 13.4432C111.185 13.0398 110.656 12.8381 110.003 12.8381C109.56 12.8381 109.156 12.9517 108.793 13.179C108.429 13.4006 108.139 13.7159 107.923 14.125C107.707 14.5284 107.599 15 107.599 15.5398V23.5H104.514ZM131.849 23.7557C130.536 23.7557 129.403 23.483 128.448 22.9375C127.499 22.3864 126.769 21.608 126.258 20.6023C125.746 19.5909 125.491 18.4006 125.491 17.0312C125.491 15.6847 125.746 14.5028 126.258 13.4858C126.775 12.4631 127.496 11.6676 128.423 11.0994C129.349 10.5256 130.437 10.2386 131.687 10.2386C132.494 10.2386 133.255 10.3693 133.971 10.6307C134.692 10.8864 135.329 11.2841 135.88 11.8239C136.437 12.3636 136.874 13.0511 137.192 13.8864C137.511 14.7159 137.67 15.7045 137.67 16.8523V17.7983H126.94V15.7188H134.712C134.707 15.1278 134.579 14.6023 134.329 14.142C134.079 13.6761 133.729 13.3097 133.281 13.0426C132.837 12.7756 132.32 12.642 131.729 12.642C131.099 12.642 130.545 12.7955 130.067 13.1023C129.59 13.4034 129.218 13.8011 128.951 14.2955C128.69 14.7841 128.556 15.321 128.55 15.9062V17.7216C128.55 18.483 128.69 19.1364 128.968 19.6818C129.246 20.2216 129.636 20.6364 130.136 20.9261C130.636 21.2102 131.221 21.3523 131.891 21.3523C132.34 21.3523 132.746 21.2898 133.11 21.1648C133.474 21.0341 133.789 20.8438 134.056 20.5938C134.323 20.3438 134.525 20.0341 134.661 19.6648L137.542 19.9886C137.36 20.75 137.013 21.4148 136.502 21.983C135.996 22.5455 135.349 22.983 134.559 23.2955C133.769 23.6023 132.866 23.7557 131.849 23.7557Z" fill="#102D47" />
  </g>
  <defs>
    <clipPath id="clip0_259_1052">
      <rect width="139.507" height="30" fill="white" />
    </clipPath>
  </defs>
</svg>